<svg width="42" height="33" viewBox="0 0 42 33" fill="none" xmlns="http://www.w3.org/2000/svg">
<path d="M37.1042 25.1153C36.9897 24.801 37.2416 24.3645 37.482 24.0502C37.5555 23.9566 37.6357 23.8663 37.7224 23.7795C39.7787 21.4493 40.8786 18.7048 40.8819 15.896C40.9163 7.84669 32.0099 1.31641 20.9972 1.31641C11.3925 1.31641 3.37912 6.30142 1.50169 12.919C1.22083 13.8998 1.07883 14.9008 1.07813 15.9048C1.07812 23.9629 9.64104 30.6678 20.6538 30.6678C22.4053 30.6678 24.7635 30.2662 26.0571 29.9955C27.3507 29.7249 28.6329 29.3669 28.9648 29.2709C29.3051 29.1731 29.6658 29.1228 30.0295 29.1225C30.4263 29.1213 30.8194 29.1807 31.1857 29.2971L37.6766 31.0519C37.8189 31.0978 37.9693 31.1272 38.123 31.1392C38.3659 31.1392 38.5989 31.0656 38.7706 30.9346C38.9424 30.8036 39.0389 30.626 39.0389 30.4408C39.0309 30.3609 39.0117 30.2818 38.9816 30.205L37.1042 25.1153Z" stroke="black" stroke-width="2" stroke-miterlimit="10" stroke-linecap="round"/>
</svg>
