<svg width="30" height="23" viewBox="0 0 30 23" fill="none" xmlns="http://www.w3.org/2000/svg">
<path d="M3.25221 1.7088C1.73534 3.76061 1.00156 6.08829 1.13198 8.4345C1.26241 10.7807 2.25195 13.0541 3.99123 15.0033C4.25839 15.3072 4.40873 15.5423 4.36247 15.6999C4.31621 15.8575 2.98274 21.0875 2.98274 21.0875C2.95066 21.2099 2.96283 21.3366 3.01796 21.4542C3.07309 21.5718 3.16917 21.6762 3.29615 21.7563C3.46559 21.858 3.67628 21.9127 3.89292 21.9113C4.00869 21.9115 4.12327 21.8938 4.22947 21.8591L10.7303 19.9433C11.1777 19.8105 11.6769 19.8168 12.1181 19.9607C14.3086 20.6034 16.7304 21.0057 19.1533 21.0057C22.4046 21.0083 25.5989 20.3626 28.4113 19.1343" stroke="black" stroke-width="2" stroke-miterlimit="10" stroke-linecap="round"/>
</svg>
